<?xml version="1.0" standalone="no"?>
<!DOCTYPE svg PUBLIC "-//W3C//DTD SVG 20010904//EN" "http://www.w3.org/TR/2001/REC-SVG-20010904/DTD/svg10.dtd">
<!-- Created using Krita: https://krita.org -->
<svg xmlns="http://www.w3.org/2000/svg" 
    xmlns:xlink="http://www.w3.org/1999/xlink"
    xmlns:krita="http://krita.org/namespaces/svg/krita"
    xmlns:sodipodi="http://sodipodi.sourceforge.net/DTD/sodipodi-0.dtd"
    width="129.024pt"
    height="147.456pt"
    viewBox="0 0 129.024 147.456">
<defs/>
<path id="shape0" transform="matrix(0.288 0 0 0.288 0 9.216)" fill="#ffffff" stroke="#000000" stroke-opacity="0" stroke-width="0" stroke-linecap="square" stroke-linejoin="bevel" d="M400 0L48 0C21.5 0 0 21.5 0 48L0 400C0 426.5 21.5 448 48 448L400 448C426.5 448 448 426.5 448 400L448 48C448 21.5 426.5 0 400 0Z"/><path id="shape1" transform="matrix(0.288 0 0 0.288 227.001888 85.358304)" fill="#0d0c22" stroke="#000000" stroke-opacity="0" stroke-width="0" stroke-linecap="square" stroke-linejoin="bevel" d="M2.908 1.135L2.03 0.619L0 0C0.817 0.689 1.839 1.089 2.908 1.135Z"/><path id="shape2" transform="matrix(0.288 0 0 0.288 231.239808 112.000608)" fill="#0d0c22" stroke="#000000" stroke-opacity="0" stroke-width="0" stroke-linecap="square" stroke-linejoin="bevel" d="M0.98 0L0 0.275Z"/><path id="shape3" transform="matrix(0.288 0 0 0.288 227.840472 85.61952)" fill="#0d0c22" stroke="#000000" stroke-opacity="0" stroke-width="0" stroke-linecap="square" stroke-linejoin="bevel" d="M0.37125 0.087C0.24625 0.071 0.12425 0.042 0.00525 0C-0.00175 0.081 -0.00175 0.163 0.00525 0.244C0.13925 0.226 0.26625 0.172 0.37125 0.087Z"/><path id="shape4" transform="matrix(0.288 0 0 0.288 227.840544 85.664736)" fill="#0d0c22" stroke="#000000" stroke-opacity="0" stroke-width="0" stroke-linecap="square" stroke-linejoin="bevel" d="M0 0.082L0.131 0.082L0.131 0Z"/><path id="shape5" transform="matrix(0.288 0 0 0.288 231.295968 111.46752)" fill="#0d0c22" stroke="#000000" stroke-opacity="0" stroke-width="0" stroke-linecap="square" stroke-linejoin="bevel" d="M0 1.686L1.48 0.843L2.03 0.533L2.529 0C1.591 0.404 0.734 0.976 0 1.686Z"/><path id="shape6" transform="matrix(0.288 0 0 0.288 227.877984 85.71024)" fill="#0d0c22" stroke="#000000" stroke-opacity="0" stroke-width="0" stroke-linecap="square" stroke-linejoin="bevel" d="M2.426 1.91L0.98 0.533L0 0C0.527 0.93 1.398 1.616 2.426 1.91Z"/><path id="shape7" transform="matrix(0.288 0 0 0.288 122.997888 341.61984)" fill="#0d0c22" stroke="#000000" stroke-opacity="0" stroke-width="0" stroke-linecap="square" stroke-linejoin="bevel" d="M2.943 0C1.788 0.5 0.776 1.28 0 2.27L0.912 1.69C1.532 1.12 2.409 0.45 2.943 0Z"/><path id="shape8" transform="matrix(0.288 0 0 0.288 184.516318175163 329.457214956005)" fill="#0d0c22" stroke="#000000" stroke-opacity="0" stroke-width="0" stroke-linecap="square" stroke-linejoin="bevel" d="M0.50534 0.681337C0.50534 -0.618663 -0.13066 -0.378663 0.0243397 4.26134C0.0243397 3.89134 0.17934 3.51134 0.24734 3.15134C0.33334 2.32134 0.40234 1.51134 0.50534 0.681337Z"/><path id="shape9" transform="matrix(0.288 0 0 0.288 177.506496 341.61984)" fill="#0d0c22" stroke="#000000" stroke-opacity="0" stroke-width="0" stroke-linecap="square" stroke-linejoin="bevel" d="M2.942 0C1.787 0.5 0.776 1.28 0 2.27L0.912 1.69C1.531 1.12 2.409 0.45 2.942 0Z"/><path id="shape10" transform="matrix(0.288 0 0 0.288 80.123616 344.04768)" fill="#0d0c22" stroke="#000000" stroke-opacity="0" stroke-width="0" stroke-linecap="square" stroke-linejoin="bevel" d="M3.097 1.45C2.22 0.69 1.147 0.19 0 0C0.929 0.45 1.858 0.9 2.477 1.24Z"/><path id="shape11" transform="matrix(0.288 0 0 0.288 71.026272 334.12608)" fill="#0d0c22" stroke="#000000" stroke-opacity="0" stroke-width="0" stroke-linecap="square" stroke-linejoin="bevel" d="M1.222 3.85C1.085 2.5 0.669 1.19 0 0C0.474 1.23 0.87 2.5 1.187 3.78Z"/><path id="shape12" transform="matrix(0.288 0 0 0.288 22.662288 111.206016)" fill="#0d0c22" stroke="#000000" stroke-opacity="0" stroke-width="0" stroke-linecap="square" stroke-linejoin="bevel" d="M0 0L0.7914 0.74L1.3077 1.05C0.9102 0.655 0.4718 0.303 0 0Z"/><path id="shape13" transform="matrix(0.288 0 0 0.288 26.567996799491 24.0750006703441)" fill="#000000" stroke="#000000" stroke-opacity="0" stroke-width="0" stroke-linecap="square" stroke-linejoin="bevel" d="M262.325 92.1607L260.226 82.5909C258.343 74.0046 254.068 65.8914 244.318 62.7881C241.192 61.7952 237.646 61.3687 235.25 59.3136C232.854 57.2587 232.145 54.0672 231.591 51.1076C230.565 45.6756 229.6 40.2389 228.548 34.8163C227.64 30.1542 226.921 24.9171 224.556 20.6402C221.476 14.8974 215.088 11.5389 208.734 9.31693C205.479 8.21844 202.157 7.28917 198.784 6.53368C182.912 2.74844 166.223 1.35681 149.894 0.56358C130.295 -0.414036 110.643 -0.119493 91.09 1.44494C76.5366 2.64174 61.2081 4.08905 47.3783 8.63968C42.3237 10.305 37.1149 12.3043 33.2714 15.8344C28.5552 20.1717 27.0157 26.8793 30.459 32.288C32.9069 36.1289 37.0534 38.8427 41.4513 40.6379C47.1797 42.951 53.1621 44.7112 59.2994 45.8891C76.3878 49.3032 94.087 50.6437 111.545 51.2144C130.895 51.9202 150.276 51.3481 169.533 49.5025C174.296 49.0293 179.049 48.4618 183.794 47.8002C189.383 47.0254 192.97 40.4198 191.323 35.8181C189.352 30.3167 184.056 28.1829 178.068 29.0133C177.185 29.1383 176.307 29.2543 175.424 29.3702L174.788 29.4538C172.759 29.6859 170.731 29.9021 168.702 30.1032C164.511 30.5114 160.31 30.8454 156.099 31.1053C146.666 31.699 137.209 31.9726 127.756 31.9866C118.468 31.9866 109.174 31.7499 99.9064 31.1981C95.6779 30.9476 91.4595 30.6289 87.2516 30.2423C85.3375 30.0614 83.4284 29.8714 81.5197 29.6579L79.7028 29.4492L79.3079 29.3982L77.4245 29.1524C73.5757 28.628 69.7268 28.0252 65.9192 27.2967C65.535 27.2196 65.1912 27.0266 64.9448 26.749C64.6985 26.4715 64.5643 26.1264 64.5643 25.7707C64.5643 25.4149 64.6985 25.0697 64.9448 24.7923C65.1912 24.5148 65.535 24.3216 65.9192 24.2445L65.991 24.2445C69.2908 23.609 72.6159 23.0662 75.9515 22.5931C77.0636 22.4354 78.1787 22.2807 79.2975 22.1292L79.3282 22.1292C81.4168 22.004 83.5158 21.6653 85.594 21.4427C103.676 19.7425 121.866 19.1628 140.036 19.7078C148.858 19.9397 157.674 20.4082 166.454 21.2154C168.343 21.3916 170.221 21.5772 172.099 21.7859C172.818 21.8648 173.541 21.9576 174.265 22.0364L175.722 22.2266C179.971 22.7987 184.198 23.493 188.403 24.3094C194.633 25.5341 202.633 25.933 205.404 32.1025C206.287 34.0601 206.687 36.2357 207.174 38.2906L207.795 40.9116C207.812 40.9585 207.824 41.0067 207.831 41.0552C209.299 47.2403 210.768 53.4253 212.239 59.6104C212.347 60.0673 212.35 60.5394 212.247 60.9972C212.144 61.4552 211.938 61.8887 211.641 62.2716C211.345 62.6541 210.964 62.9774 210.523 63.2211C210.082 63.4648 209.59 63.6236 209.078 63.688L209.037 63.688L208.139 63.7993L207.251 63.9058C204.439 64.2369 201.624 64.5461 198.805 64.8338C193.252 65.4059 187.691 65.9006 182.122 66.3182C171.054 67.1499 159.964 67.6958 148.853 67.9557C143.191 68.0916 137.53 68.1552 131.872 68.1458C109.349 68.1298 86.8451 66.9463 64.4721 64.6017C62.0498 64.342 59.6277 64.0636 57.2054 63.7807C59.0837 63.9988 55.8403 63.6136 55.1836 63.5303C53.6441 63.3354 52.1046 63.1329 50.565 62.9226C45.3974 62.2219 40.2607 61.3592 35.1032 60.603C28.8683 59.6754 22.9052 60.1393 17.2655 62.9226C12.6361 65.2126 8.88928 68.724 6.52484 72.9888C4.0924 77.5347 3.36883 82.4842 2.28092 87.3689C1.193 92.2535 -0.500467 97.5092 0.140994 102.524C1.52142 113.346 9.89123 122.141 21.9302 124.108C33.2559 125.963 44.6431 127.466 56.061 128.747C100.914 133.712 146.227 134.306 191.22 130.519C194.884 130.209 198.543 129.872 202.197 129.507C203.338 129.394 204.493 129.513 205.577 129.855C206.66 130.198 207.646 130.755 208.461 131.486C209.275 132.217 209.899 133.104 210.285 134.081C210.672 135.058 210.812 136.101 210.695 137.133L209.555 147.144C207.26 167.372 204.964 187.599 202.669 207.824C200.274 229.063 197.864 250.301 195.438 271.536C194.754 277.518 194.07 283.498 193.386 289.475C192.729 295.363 192.636 301.434 191.4 307.252C189.449 316.399 182.599 322.018 172.602 324.072C163.444 325.956 154.088 326.946 144.696 327.021C134.284 327.072 123.877 326.655 113.464 326.706C102.349 326.762 88.7348 325.835 80.1546 318.356C72.6159 311.789 71.5742 301.504 70.5479 292.61C69.1796 280.837 67.8232 269.066 66.4784 257.296L58.9349 191.848L54.0548 149.501C53.9724 148.8 53.8904 148.109 53.8135 147.404C53.2283 142.352 49.2718 137.407 43.0368 137.662C37.7 137.876 31.6343 141.976 32.2604 147.404L35.878 178.799L43.3601 243.742C45.4916 262.189 47.6178 280.637 49.7389 299.091C50.1496 302.626 50.5343 306.171 50.9653 309.705C53.3106 329.022 69.6293 339.431 89.838 342.361C101.641 344.078 113.731 344.432 125.709 344.607C141.063 344.831 156.571 345.364 171.673 342.849C194.053 339.137 210.844 325.63 213.24 304.677C213.924 298.628 214.609 292.578 215.293 286.525C217.568 266.51 219.839 246.494 222.108 226.476L229.528 161.07L232.931 131.094C233.1 129.607 233.794 128.21 234.911 127.108C236.027 126.006 237.506 125.258 239.129 124.975C245.529 123.848 251.646 121.923 256.198 117.521C263.443 110.512 264.885 101.373 262.325 92.1607ZM21.6018 98.6272C21.6993 98.5854 21.5197 99.3414 21.4427 99.694C21.4273 99.1605 21.4581 98.6873 21.6018 98.6272ZM22.2227 102.969C22.274 102.936 22.428 103.122 22.587 103.345C22.3459 103.141 22.1919 102.988 22.2176 102.969ZM22.8334 103.697C23.0541 104.036 23.1721 104.249 22.8334 103.697ZM24.0599 104.597L24.0906 104.597C24.0906 104.63 24.1471 104.662 24.1676 104.695C24.1336 104.659 24.0958 104.626 24.0547 104.597ZM238.832 103.252C236.533 105.228 233.069 106.146 229.646 106.606C191.261 111.755 152.317 114.362 113.51 113.211C85.7377 112.353 58.2576 109.565 30.762 106.054C28.0677 105.711 25.1478 105.265 23.2952 103.47C19.8057 100.084 21.5197 93.2647 22.428 89.1733C23.2593 85.4252 24.8501 80.4293 29.7817 79.8958C37.4793 79.0794 46.4185 82.0156 54.0342 83.0595C63.2028 84.3241 72.4057 85.337 81.6425 86.0978C121.064 89.3451 161.148 88.8393 200.395 84.0893C207.549 83.2202 214.677 82.2105 221.779 81.0602C228.107 80.0349 235.122 78.11 238.945 84.0335C241.567 88.0694 241.916 93.4688 241.511 98.0287C241.386 100.015 240.425 101.884 238.827 103.252Z"/><path id="shape14" transform="matrix(0.288 0 0 0.288 63.936 160.703995886015)" fill="#ffdd00" stroke="#000000" stroke-opacity="0" stroke-width="0" stroke-linecap="square" stroke-linejoin="bevel" d="M249.27 32.675C203.329 52.342 151.193 74.642 83.623 74.642C55.357 74.585 27.227 70.707 0 63.113L46.733 542.91C48.387 562.97 57.523 581.67 72.326 595.3C87.129 608.93 106.517 616.49 126.639 616.49C126.639 616.49 192.901 619.93 215.012 619.93C238.808 619.93 310.163 616.49 310.163 616.49C330.283 616.49 349.666 608.92 364.466 595.29C379.266 581.66 388.399 562.97 390.053 542.91L440.106 12.716C417.738 5.07601 395.163 1.42847e-05 369.715 1.42847e-05C325.701 -0.0169857 290.238 15.142 249.27 32.675Z"/>
</svg>
