<?xml version="1.0" standalone="no"?>
<!DOCTYPE svg PUBLIC "-//W3C//DTD SVG 20010904//EN" "http://www.w3.org/TR/2001/REC-SVG-20010904/DTD/svg10.dtd">
<!-- Created using Krita: https://krita.org -->
<svg xmlns="http://www.w3.org/2000/svg" 
    xmlns:xlink="http://www.w3.org/1999/xlink"
    xmlns:krita="http://krita.org/namespaces/svg/krita"
    xmlns:sodipodi="http://sodipodi.sourceforge.net/DTD/sodipodi-0.dtd"
    width="129.024pt"
    height="147.456pt"
    viewBox="0 0 129.024 147.456">
<defs/>
<path id="shape0" transform="matrix(0.288 0 0 0.288 0 9.216)" fill="#ffffff" stroke="#000000" stroke-opacity="0" stroke-width="0" stroke-linecap="square" stroke-linejoin="bevel" d="M400 0L48 0C21.5 0 0 21.5 0 48L0 400C0 426.5 21.5 448 48 448L400 448C426.5 448 448 426.5 448 400L448 48C448 21.5 426.5 0 400 0Z"/><path id="shape1" transform="matrix(0.288 0 0 0.288 22.2049174843109 29.9519987273291)" fill="#000000" stroke="#ffffff" stroke-width="1" stroke-linecap="square" stroke-linejoin="bevel" d="M83.768 178.713C81.1342 191.584 70.6743 251.579 67.5889 268.539C67.3632 269.746 66.8364 270.215 65.3314 270.215L9.19382 270.215C3.47471 270.215 -0.664117 265.791 0.0883978 260.897L44.1857 11.5971C45.3145 5.16178 51.7861 0.268285 59.236 0.268285C173.844 0.268285 183.476 -2.21198 212.749 7.91018C257.975 23.5291 262.114 61.2023 245.86 101.959C229.681 143.922 191.302 161.955 140.432 162.491C107.773 162.96 88.1326 157.799 83.768 178.713ZM268.661 82.251C267.306 81.3796 266.78 81.0444 266.403 83.1225C264.898 90.7644 262.565 98.2052 259.781 105.646C229.756 181.931 146.528 175.294 105.892 175.294C101.302 175.294 98.2915 177.507 97.6895 181.596C80.6827 275.712 77.2964 295.353 77.2964 295.353C76.5439 300.112 79.9302 304 85.273 304L133.058 304C139.529 304 144.872 299.777 146.151 294.012C146.678 290.392 145.324 298.101 156.988 232.81C160.449 218.062 167.749 219.604 179.036 219.604C232.465 219.604 274.154 200.298 286.571 144.325C291.462 120.997 290.032 96.4623 268.661 82.251Z"/>
</svg>
