<?xml version="1.0" standalone="no"?>
<!DOCTYPE svg PUBLIC "-//W3C//DTD SVG 20010904//EN"
 "http://www.w3.org/TR/2001/REC-SVG-20010904/DTD/svg10.dtd">
<svg version="1.0" xmlns="http://www.w3.org/2000/svg"
 width="320.000000pt" height="320.000000pt" viewBox="0 0 320.000000 320.000000"
 preserveAspectRatio="xMidYMid meet">
<metadata>
Created by potrace 1.11, written by Peter Selinger 2001-2013
</metadata>
<g transform="translate(0.000000,320.000000) scale(0.100000,-0.100000)"
fill="#000000" stroke="none">
<path d="M0 1600 l0 -1600 1600 0 1600 0 0 1600 0 1600 -1600 0 -1600 0 0
-1600z m2610 805 l0 -94 -30 -16 c-16 -8 -38 -30 -47 -48 -17 -30 -18 -78 -18
-642 0 -671 -1 -657 61 -696 l34 -21 0 -94 0 -94 -33 0 c-47 0 -135 28 -176
56 -50 34 -87 95 -105 173 -20 89 -31 764 -18 1091 8 205 13 243 32 294 40
105 118 166 233 184 28 5 55 7 60 5 4 -2 7 -47 7 -98z m259 58 c66 -33 113
-91 137 -166 17 -56 31 -257 26 -374 l-4 -73 -117 0 -118 0 0 184 c-1 200 -9
236 -58 258 -24 11 -25 15 -25 113 l0 102 52 -8 c29 -5 77 -21 107 -36z
m-2329 -863 l0 -890 -120 0 -120 0 0 890 0 890 120 0 120 0 0 -890z m316 859
c83 -30 136 -88 165 -176 19 -59 22 -98 26 -298 9 -384 -17 -489 -140 -577
-16 -12 -11 -34 73 -333 50 -176 93 -330 96 -342 6 -23 6 -23 -118 -23 l-125
0 -72 283 c-40 155 -77 299 -82 320 -6 21 -16 37 -24 37 -12 0 -15 19 -15 104
l0 105 46 7 c59 9 102 46 114 99 12 52 12 458 0 510 -12 53 -56 92 -114 100
l-46 7 0 106 0 105 78 -6 c44 -3 106 -16 138 -28z m802 -246 c29 -153 82 -494
118 -758 35 -264 67 -490 70 -502 4 -22 8 -23 114 -23 l110 0 0 -110 0 -110
-193 0 -193 0 -57 308 c-42 226 -71 432 -112 779 -30 260 -55 475 -55 478 0 3
-52 5 -115 5 l-115 0 0 105 0 105 188 0 188 0 52 -277z m412 -458 l0 -735 -80
0 c-65 0 -80 3 -80 15 0 9 -13 217 -29 463 -16 246 -32 570 -35 720 l-6 272
115 0 115 0 0 -735z m-676 393 c14 -92 65 -1150 66 -1370 l0 -68 -115 0 -115
0 0 735 0 735 80 0 79 0 5 -32z m1646 -865 c0 -272 -9 -343 -51 -430 -44 -92
-142 -153 -246 -153 l-33 0 0 98 0 97 30 13 c55 25 64 58 68 240 l4 162 -71 0
-71 0 0 105 0 105 185 0 185 0 0 -237z"/>
</g>
</svg>
